<?xml version="1.0" encoding="UTF-8" standalone="no" ?>
<!DOCTYPE svg PUBLIC "-//W3C//DTD SVG 1.1//EN" "http://www.w3.org/Graphics/SVG/1.1/DTD/svg11.dtd">
<svg xmlns="http://www.w3.org/2000/svg" xmlns:xlink="http://www.w3.org/1999/xlink" version="1.1" width="30" height="30" viewBox="0 0 120 120" xml:space="preserve">
<desc>Created with Fabric.js 5.3.0</desc>
<defs>
</defs>
<g transform="matrix(0.3782786846 0.3782786846 -0.0985100741 0.0985100741 24.887119464 70.2267269745)" id="5oh7WiYqseBQBZnZS9Fsk"  >
<path style="stroke: rgb(143,128,242); stroke-width: 0; stroke-dasharray: none; stroke-linecap: butt; stroke-dashoffset: 0; stroke-linejoin: miter; stroke-miterlimit: 4; fill: rgb(5,146,199); fill-rule: nonzero; opacity: 1;"  transform=" translate(0, 0)" d="M -34.97268 -5.29738 C -34.97268 -21.686600000000002 -31.512759999999997 -34.97268 -27.244739999999997 -34.97268 L 27.24473 -34.97268 L 27.24473 -34.97268 C 31.51276 -34.97268 34.97267 -21.6866 34.97267 -5.297379999999997 L 34.97267 5.297370000000003 L 34.97267 5.297370000000003 C 34.97267 21.686590000000002 31.51275 34.97267 27.24473 34.97267 L -27.244739999999997 34.97267 L -27.244739999999997 34.97267 C -31.512769999999996 34.97267 -34.97268 21.686590000000002 -34.97268 5.297370000000001 z" stroke-linecap="round" />
</g>
<g transform="matrix(0.3782786846 -0.3782786846 0.0985100741 0.0985100741 24.8871182267 50.6043613877)" id="YsRzejsEQK-jM8uBpHhx8"  >
<path style="stroke: rgb(143,128,242); stroke-width: 0; stroke-dasharray: none; stroke-linecap: butt; stroke-dashoffset: 0; stroke-linejoin: miter; stroke-miterlimit: 4; fill: rgb(0,185,255); fill-rule: nonzero; opacity: 1;"  transform=" translate(0, 0)" d="M -34.97268 -5.29738 C -34.97268 -21.686600000000002 -31.512759999999997 -34.97268 -27.244739999999997 -34.97268 L 27.24473 -34.97268 L 27.24473 -34.97268 C 31.51276 -34.97268 34.97267 -21.6866 34.97267 -5.297379999999997 L 34.97267 5.297370000000003 L 34.97267 5.297370000000003 C 34.97267 21.686590000000002 31.51275 34.97267 27.24473 34.97267 L -27.244739999999997 34.97267 L -27.244739999999997 34.97267 C -31.512769999999996 34.97267 -34.97268 21.686590000000002 -34.97268 5.297370000000001 z" stroke-linecap="round" />
</g>
<g transform="matrix(0.3782786846 0.3782786846 -0.0985100741 0.0985100741 95.1128817733 51.4858118917)" id="7wYQl8nAlwF9m2vcTtRQL"  >
<path style="stroke: rgb(143,128,242); stroke-width: 0; stroke-dasharray: none; stroke-linecap: butt; stroke-dashoffset: 0; stroke-linejoin: miter; stroke-miterlimit: 4; fill: rgb(5,146,199); fill-rule: nonzero; opacity: 1;"  transform=" translate(0, 0)" d="M -34.97268 -5.29738 C -34.97268 -21.686600000000002 -31.512759999999997 -34.97268 -27.244739999999997 -34.97268 L 27.24473 -34.97268 L 27.24473 -34.97268 C 31.51276 -34.97268 34.97267 -21.6866 34.97267 -5.297379999999997 L 34.97267 5.297370000000003 L 34.97267 5.297370000000003 C 34.97267 21.686590000000002 31.51275 34.97267 27.24473 34.97267 L -27.244739999999997 34.97267 L -27.244739999999997 34.97267 C -31.512769999999996 34.97267 -34.97268 21.686590000000002 -34.97268 5.297370000000001 z" stroke-linecap="round" />
</g>
<g transform="matrix(0.3782786846 -0.3782786846 0.0985100741 0.0985100741 95.1128805358 71.1081774788)" id="ugTejO5HGvcdk8gsFfNCE"  >
<path style="stroke: rgb(143,128,242); stroke-width: 0; stroke-dasharray: none; stroke-linecap: butt; stroke-dashoffset: 0; stroke-linejoin: miter; stroke-miterlimit: 4; fill: rgb(0,185,255); fill-rule: nonzero; opacity: 1;"  transform=" translate(0, 0)" d="M -34.97268 -5.29738 C -34.97268 -21.686600000000002 -31.512759999999997 -34.97268 -27.244739999999997 -34.97268 L 27.24473 -34.97268 L 27.24473 -34.97268 C 31.51276 -34.97268 34.97267 -21.6866 34.97267 -5.297379999999997 L 34.97267 5.297370000000003 L 34.97267 5.297370000000003 C 34.97267 21.686590000000002 31.51275 34.97267 27.24473 34.97267 L -27.244739999999997 34.97267 L -27.244739999999997 34.97267 C -31.512769999999996 34.97267 -34.97268 21.686590000000002 -34.97268 5.297370000000001 z" stroke-linecap="round" />
</g>
<g transform="matrix(0.2200443554 0.0800895956 -0.4413283521 1.212539682 60.0425931458 60)" id="V2VEMe5NNfmCGxbHEsGnL"  >
<path style="stroke: rgb(204,215,204); stroke-width: 0; stroke-dasharray: none; stroke-linecap: butt; stroke-dashoffset: 0; stroke-linejoin: miter; stroke-miterlimit: 4; fill: rgb(93,93,93); fill-rule: nonzero; opacity: 1;"  transform=" translate(0, 0)" d="M -21.49321 -13.6923 C -21.49321 -18.00063 -2.247530000000001 -21.49322 21.493219999999997 -21.49322 L 21.493219999999997 -21.49322 L 21.493219999999997 13.69229 L 21.493219999999997 13.69229 C 21.493219999999997 18.000619999999998 2.247539999999997 21.493209999999998 -21.49321 21.493209999999998 L -21.49321 21.493209999999998 z" stroke-linecap="round" />
</g>
</svg>