<?xml version="1.0" encoding="UTF-8"?>
<svg xmlns="http://www.w3.org/2000/svg" xmlns:xlink="http://www.w3.org/1999/xlink" width="80px" height="80px" viewBox="0 0 80 80" version="1.1">
<g id="surface1">
<path style=" stroke:none;fill-rule:nonzero;fill:rgb(100%,17.647059%,12.54902%);fill-opacity:1;" d="M 78.742188 18.066406 C 78.773438 18.171875 78.789062 18.28125 78.789062 18.394531 L 78.789062 35.535156 C 78.789062 35.984375 78.546875 36.394531 78.160156 36.621094 L 63.773438 44.902344 L 63.773438 61.320312 C 63.773438 61.769531 63.535156 62.179688 63.148438 62.40625 L 33.113281 79.695312 C 33.046875 79.734375 32.972656 79.757812 32.894531 79.785156 C 32.867188 79.792969 32.839844 79.8125 32.8125 79.820312 C 32.601562 79.875 32.382812 79.875 32.171875 79.820312 C 32.136719 79.808594 32.105469 79.789062 32.074219 79.777344 C 32.003906 79.753906 31.933594 79.730469 31.867188 79.695312 L 1.839844 62.40625 C 1.453125 62.183594 1.210938 61.769531 1.210938 61.320312 L 1.210938 9.894531 C 1.210938 9.78125 1.226562 9.671875 1.257812 9.566406 C 1.265625 9.53125 1.289062 9.5 1.300781 9.460938 C 1.324219 9.398438 1.34375 9.328125 1.378906 9.269531 C 1.402344 9.226562 1.4375 9.195312 1.464844 9.15625 C 1.5 9.109375 1.535156 9.058594 1.574219 9.011719 C 1.613281 8.976562 1.660156 8.949219 1.699219 8.917969 C 1.746094 8.882812 1.785156 8.839844 1.835938 8.8125 L 1.839844 8.8125 L 16.851562 0.167969 C 17.238281 -0.0546875 17.714844 -0.0546875 18.101562 0.167969 L 33.117188 8.8125 L 33.121094 8.8125 C 33.167969 8.84375 33.210938 8.882812 33.257812 8.917969 C 33.296875 8.949219 33.34375 8.976562 33.378906 9.011719 C 33.421875 9.058594 33.453125 9.109375 33.492188 9.15625 C 33.519531 9.195312 33.554688 9.226562 33.574219 9.269531 C 33.613281 9.332031 33.632812 9.398438 33.65625 9.460938 C 33.667969 9.5 33.691406 9.53125 33.699219 9.570312 C 33.730469 9.675781 33.746094 9.785156 33.746094 9.894531 L 33.746094 42.015625 L 46.253906 34.8125 L 46.253906 18.390625 C 46.253906 18.28125 46.269531 18.171875 46.300781 18.066406 C 46.308594 18.027344 46.332031 17.996094 46.34375 17.960938 C 46.367188 17.894531 46.390625 17.828125 46.425781 17.765625 C 46.449219 17.726562 46.480469 17.691406 46.507812 17.65625 C 46.546875 17.605469 46.578125 17.554688 46.621094 17.511719 C 46.65625 17.472656 46.703125 17.449219 46.742188 17.417969 C 46.789062 17.378906 46.832031 17.339844 46.878906 17.308594 L 46.882812 17.308594 L 61.898438 8.664062 C 62.285156 8.441406 62.761719 8.441406 63.148438 8.664062 L 78.160156 17.308594 C 78.214844 17.339844 78.253906 17.378906 78.300781 17.414062 C 78.339844 17.445312 78.386719 17.472656 78.421875 17.507812 C 78.464844 17.554688 78.496094 17.605469 78.535156 17.65625 C 78.5625 17.691406 78.597656 17.726562 78.621094 17.765625 C 78.65625 17.828125 78.675781 17.894531 78.699219 17.960938 C 78.714844 17.996094 78.734375 18.027344 78.742188 18.066406 Z M 76.285156 34.8125 L 76.285156 20.558594 L 71.03125 23.582031 L 63.773438 27.761719 L 63.773438 42.015625 Z M 61.269531 60.597656 L 61.269531 46.332031 L 54.132812 50.410156 L 33.742188 62.046875 L 33.742188 76.445312 Z M 3.714844 12.058594 L 3.714844 60.597656 L 31.238281 76.445312 L 31.238281 62.050781 L 16.859375 53.910156 L 16.855469 53.90625 L 16.847656 53.90625 C 16.800781 53.875 16.761719 53.835938 16.714844 53.800781 C 16.675781 53.769531 16.628906 53.746094 16.597656 53.710938 L 16.59375 53.707031 C 16.550781 53.667969 16.523438 53.617188 16.488281 53.574219 C 16.457031 53.53125 16.421875 53.496094 16.394531 53.453125 L 16.394531 53.449219 C 16.367188 53.402344 16.347656 53.34375 16.328125 53.292969 C 16.308594 53.246094 16.28125 53.203125 16.269531 53.152344 L 16.269531 53.148438 C 16.253906 53.089844 16.25 53.027344 16.246094 52.96875 C 16.238281 52.921875 16.226562 52.875 16.226562 52.828125 L 16.226562 19.261719 L 8.96875 15.082031 L 3.714844 12.0625 Z M 17.480469 2.695312 L 4.96875 9.894531 L 17.476562 17.097656 L 29.984375 9.894531 L 17.476562 2.695312 Z M 23.984375 47.632812 L 31.242188 43.457031 L 31.242188 12.058594 L 25.988281 15.085938 L 18.730469 19.261719 L 18.730469 50.660156 Z M 62.523438 11.191406 L 50.015625 18.394531 L 62.523438 25.59375 L 75.027344 18.390625 Z M 61.269531 27.761719 L 54.011719 23.582031 L 48.757812 20.558594 L 48.757812 34.8125 L 56.015625 38.988281 L 61.269531 42.015625 Z M 32.488281 59.882812 L 50.835938 49.410156 L 60.007812 44.175781 L 47.507812 36.980469 L 33.117188 45.265625 L 20.003906 52.816406 Z M 32.488281 59.882812 "/>
</g>
</svg>
