<?xml version="1.0" encoding="UTF-8"?>
<svg xmlns="http://www.w3.org/2000/svg" xmlns:xlink="http://www.w3.org/1999/xlink" width="80px" height="80px" viewBox="0 0 80 80" version="1.1">
<g id="surface1">
<path style=" stroke:none;fill-rule:nonzero;fill:rgb(54.901961%,78.431373%,29.411765%);fill-opacity:1;" d="M 42.929688 5.746094 C 41.15625 4.75 38.84375 4.753906 37.066406 5.746094 C 28.171875 10.65625 19.277344 15.566406 10.378906 20.472656 C 8.648438 21.382812 7.480469 23.242188 7.5 25.171875 L 7.5 54.832031 C 7.488281 56.800781 8.714844 58.675781 10.492188 59.574219 C 13.046875 60.933594 15.53125 62.429688 18.132812 63.699219 C 21.136719 65.175781 24.894531 65.503906 27.9375 63.964844 C 30.40625 62.6875 31.503906 59.847656 31.5 57.238281 C 31.519531 47.453125 31.503906 37.664062 31.507812 27.875 C 31.566406 27.4375 31.242188 26.972656 30.765625 26.984375 C 29.628906 26.964844 28.492188 26.972656 27.355469 26.980469 C 26.925781 26.941406 26.503906 27.296875 26.539062 27.730469 C 26.523438 37.453125 26.539062 47.183594 26.527344 56.910156 C 26.554688 58.257812 25.644531 59.550781 24.347656 60.003906 C 21.351562 61.054688 12.804688 55.503906 12.804688 55.503906 C 12.492188 55.359375 12.292969 55.015625 12.324219 54.679688 C 12.324219 44.894531 12.324219 35.109375 12.324219 25.324219 C 12.28125 24.929688 12.523438 24.574219 12.886719 24.414062 C 21.75 19.535156 30.613281 14.640625 39.476562 9.757812 C 39.785156 9.554688 40.214844 9.554688 40.523438 9.761719 C 49.386719 14.640625 58.25 19.527344 67.117188 24.410156 C 67.480469 24.570312 67.714844 24.929688 67.675781 25.324219 C 67.675781 35.109375 67.679688 44.894531 67.675781 54.679688 C 67.699219 55.023438 67.523438 55.359375 67.199219 55.511719 C 58.414062 60.367188 49.53125 65.0625 40.828125 70.058594 C 40.449219 70.273438 40.019531 70.523438 39.59375 70.28125 C 37.304688 69.015625 35.042969 67.699219 32.761719 66.421875 C 32.515625 66.265625 32.199219 66.199219 31.941406 66.375 C 30.917969 66.914062 29.953125 67.347656 28.78125 67.816406 C 27.132812 68.46875 27.394531 68.734375 28.882812 69.601562 C 31.550781 71.109375 34.222656 72.613281 36.890625 74.125 C 38.644531 75.222656 41.007812 75.300781 42.820312 74.289062 C 51.714844 69.382812 60.609375 64.476562 69.507812 59.574219 C 71.277344 58.671875 72.511719 56.800781 72.5 54.832031 L 72.5 25.171875 C 72.515625 23.28125 71.394531 21.457031 69.714844 20.53125 C 60.789062 15.597656 51.859375 10.675781 42.929688 5.746094 Z M 42.929688 5.746094 "/>
<path style=" stroke:none;fill-rule:nonzero;fill:rgb(54.901961%,78.431373%,29.411765%);fill-opacity:1;" d="M 56.355469 28.015625 C 52.863281 26.148438 48.710938 26.046875 44.828125 26.292969 C 42.027344 26.570312 39.078125 27.34375 37.035156 29.351562 C 34.941406 31.371094 34.484375 34.632812 35.480469 37.269531 C 36.191406 39.132812 37.988281 40.347656 39.84375 40.988281 C 42.234375 41.832031 44.746094 42.09375 47.257812 42.351562 C 49.546875 42.589844 51.839844 42.828125 54.042969 43.511719 C 54.941406 43.808594 55.988281 44.265625 56.265625 45.242188 C 56.519531 46.402344 56.238281 47.75 55.296875 48.554688 C 52.308594 50.921875 43.996094 50.558594 41.042969 48.695312 C 39.847656 47.902344 39.332031 46.5 39.125 45.160156 C 39.101562 44.742188 38.765625 44.359375 38.3125 44.390625 C 37.179688 44.378906 36.042969 44.382812 34.910156 44.390625 C 34.515625 44.359375 34.105469 44.640625 34.082031 45.042969 C 33.847656 51.171875 39.476562 53.84375 44.757812 54.433594 C 47.777344 54.71875 50.859375 54.703125 53.832031 54.054688 C 56.066406 53.546875 58.304688 52.609375 59.84375 50.890625 C 61.738281 48.800781 62.109375 45.6875 61.261719 43.082031 C 60.609375 41.140625 58.753906 39.894531 56.855469 39.253906 C 54.273438 38.367188 51.210938 37.890625 48.871094 37.667969 C 45.472656 37.34375 41.433594 37.476562 40.46875 35.242188 C 40.085938 34.074219 40.414062 32.621094 41.488281 31.902344 C 44.332031 29.972656 50.121094 30.226562 53.066406 31.667969 C 54.417969 32.347656 55.203125 33.738281 55.527344 35.140625 C 55.585938 35.554688 55.863281 35.984375 56.339844 35.964844 C 57.46875 35.988281 58.59375 35.972656 59.71875 35.972656 C 60.105469 36 60.527344 35.78125 60.605469 35.386719 C 60.558594 32.453125 59.058594 29.445312 56.355469 28.015625 Z M 56.355469 28.015625 "/>
</g>
</svg>
