<?xml version="1.0" encoding="UTF-8" standalone="no" ?>
<!DOCTYPE svg PUBLIC "-//W3C//DTD SVG 1.1//EN" "http://www.w3.org/Graphics/SVG/1.1/DTD/svg11.dtd">
<svg xmlns="http://www.w3.org/2000/svg" xmlns:xlink="http://www.w3.org/1999/xlink" version="1.1" width="450.00000000000006" height="304.05405" viewBox="-0.0000024666667002293252 0 370.0000049333334 250" xml:space="preserve">
<desc>Created with Fabric.js 5.3.0</desc>
<defs>
</defs>
<g transform="matrix(1 0 0 1 303.4555248083 127.9905351439)" id="2gtFVCMYfW8fOOdJ9QcrC"  >
<g style=""   >
		<g transform="matrix(1.4522505912 1.4522505912 -0.3781902581 0.3781902581 0.0000023756 -37.6661350275)" id="hXbJOEdDpLNx7tJRLgzMB"  >
<path style="stroke: rgb(143,128,242); stroke-width: 0; stroke-dasharray: none; stroke-linecap: butt; stroke-dashoffset: 0; stroke-linejoin: miter; stroke-miterlimit: 4; fill: rgb(5,146,199); fill-rule: nonzero; opacity: 1;"  transform=" translate(0.000005, 0.000005)" d="M -34.97268 -5.29738 C -34.97268 -21.686600000000002 -31.512759999999997 -34.97268 -27.244739999999997 -34.97268 L 27.24473 -34.97268 L 27.24473 -34.97268 C 31.51276 -34.97268 34.97267 -21.6866 34.97267 -5.297379999999997 L 34.97267 5.297370000000003 L 34.97267 5.297370000000003 C 34.97267 21.686590000000002 31.51275 34.97267 27.24473 34.97267 L -27.244739999999997 34.97267 L -27.244739999999997 34.97267 C -31.512769999999996 34.97267 -34.97268 21.686590000000002 -34.97268 5.297370000000001 z" stroke-linecap="round" />
</g>
		<g transform="matrix(1.4522505912 -1.4522505912 0.3781902581 0.3781902581 -0.0000023756 37.6661350275)" id="yCHSDobQ2u8TBge0An7dq"  >
<path style="stroke: rgb(143,128,242); stroke-width: 0; stroke-dasharray: none; stroke-linecap: butt; stroke-dashoffset: 0; stroke-linejoin: miter; stroke-miterlimit: 4; fill: rgb(0,185,255); fill-rule: nonzero; opacity: 1;"  transform=" translate(0.000005, 0.000005)" d="M -34.97268 -5.29738 C -34.97268 -21.686600000000002 -31.512759999999997 -34.97268 -27.244739999999997 -34.97268 L 27.24473 -34.97268 L 27.24473 -34.97268 C 31.51276 -34.97268 34.97267 -21.6866 34.97267 -5.297379999999997 L 34.97267 5.297370000000003 L 34.97267 5.297370000000003 C 34.97267 21.686590000000002 31.51275 34.97267 27.24473 34.97267 L -27.244739999999997 34.97267 L -27.244739999999997 34.97267 C -31.512769999999996 34.97267 -34.97268 21.686590000000002 -34.97268 5.297370000000001 z" stroke-linecap="round" />
</g>
</g>
</g>
<g transform="matrix(1 0 0 1 70.2009301904 127.9905351424)" id="M2C9grKVZeI2t8MDO4cad"  >
<g style=""   >
		<g transform="matrix(1.4522505912 1.4522505912 -0.3781902581 0.3781902581 0.000002374 37.666135026)" id="lTTl44IpvE2AQeC_E1IA6"  >
<path style="stroke: rgb(143,128,242); stroke-width: 0; stroke-dasharray: none; stroke-linecap: butt; stroke-dashoffset: 0; stroke-linejoin: miter; stroke-miterlimit: 4; fill: rgb(5,146,199); fill-rule: nonzero; opacity: 1;"  transform=" translate(0.000005, 0.000005)" d="M -34.97268 -5.29738 C -34.97268 -21.686600000000002 -31.512759999999997 -34.97268 -27.244739999999997 -34.97268 L 27.24473 -34.97268 L 27.24473 -34.97268 C 31.51276 -34.97268 34.97267 -21.6866 34.97267 -5.297379999999997 L 34.97267 5.297370000000003 L 34.97267 5.297370000000003 C 34.97267 21.686590000000002 31.51275 34.97267 27.24473 34.97267 L -27.244739999999997 34.97267 L -27.244739999999997 34.97267 C -31.512769999999996 34.97267 -34.97268 21.686590000000002 -34.97268 5.297370000000001 z" stroke-linecap="round" />
</g>
		<g transform="matrix(1.4522505911 -1.4522505911 0.3781902581 0.3781902581 -0.0000023764 -37.6661350285)" id="mzv0slBubBaQdQt1s9W3R"  >
<path style="stroke: rgb(143,128,242); stroke-width: 0; stroke-dasharray: none; stroke-linecap: butt; stroke-dashoffset: 0; stroke-linejoin: miter; stroke-miterlimit: 4; fill: rgb(0,185,255); fill-rule: nonzero; opacity: 1;"  transform=" translate(0.000005, 0.000005)" d="M -34.97268 -5.29738 C -34.97268 -21.686600000000002 -31.512759999999997 -34.97268 -27.244739999999997 -34.97268 L 27.24473 -34.97268 L 27.24473 -34.97268 C 31.51276 -34.97268 34.97267 -21.6866 34.97267 -5.297379999999997 L 34.97267 5.297370000000003 L 34.97267 5.297370000000003 C 34.97267 21.686590000000002 31.51275 34.97267 27.24473 34.97267 L -27.244739999999997 34.97267 L -27.244739999999997 34.97267 C -31.512769999999996 34.97267 -34.97268 21.686590000000002 -34.97268 5.297370000000001 z" stroke-linecap="round" />
</g>
</g>
</g>
<g transform="matrix(2.0496075356 0 0 2.0496075356 186.2304343661 127.9905351439)" id="qgP0uEG709OwaqyvbfIeJ"  >
<g style=""   >
		<g transform="matrix(0.5491542426 0.009585523 -0.0099503069 0.570052699 0 -8.6004881034)" id="TWzgB2aMMZBU2D1ZCvzLd"  >
<path style="stroke: rgb(173,122,51); stroke-width: 0; stroke-dasharray: none; stroke-linecap: butt; stroke-dashoffset: 0; stroke-linejoin: miter; stroke-miterlimit: 4; fill: rgb(0,0,0); fill-rule: nonzero; opacity: 1;"  transform=" translate(0, 0.0000042311)" d="M 0 -63.69026 C 32.42623 -63.69026 58.74317 -37.37332000000001 58.74317 -4.947090000000003 C 58.74317 18.755519999999997 37.56806 42.190099999999994 20.01075 59.87237999999999 C 14.484620000000001 65.43785 -0.3702899999999971 63.27767999999999 -0.3702899999999971 63.27767999999999 C -0.3702899999999971 63.27767999999999 -14.513909999999997 65.40834999999998 -20.010749999999998 59.87237999999999 C -37.56805 42.19009 -58.74316999999999 18.755509999999994 -58.74316999999999 -4.947090000000003 C -58.74316999999999 -37.37332 -32.42622999999999 -63.69026 7.105427357601002e-15 -63.69026 z" stroke-linecap="round" />
</g>
		<g transform="matrix(0.5263435961 0.0091873616 -0.0095369932 0.546373977 0 -8.6004881034)" id="z3WtsEnJ_x9lJ-5mx-OON"  >
<path style="stroke: rgb(173,122,51); stroke-width: 0; stroke-dasharray: none; stroke-linecap: butt; stroke-dashoffset: 0; stroke-linejoin: miter; stroke-miterlimit: 4; fill: rgb(255,245,56); fill-rule: nonzero; opacity: 1;"  transform=" translate(0, 0.0000042311)" d="M 0 -63.69026 C 32.42623 -63.69026 58.74317 -37.37332000000001 58.74317 -4.947090000000003 C 58.74317 18.755519999999997 37.56806 42.190099999999994 20.01075 59.87237999999999 C 14.484620000000001 65.43785 -0.3702899999999971 63.27767999999999 -0.3702899999999971 63.27767999999999 C -0.3702899999999971 63.27767999999999 -14.513909999999997 65.40834999999998 -20.010749999999998 59.87237999999999 C -37.56805 42.19009 -58.74316999999999 18.755509999999994 -58.74316999999999 -4.947090000000003 C -58.74316999999999 -37.37332 -32.42622999999999 -63.69026 7.105427357601002e-15 -63.69026 z" stroke-linecap="round" />
</g>
		<g transform="matrix(0.8816341177 0 0 0.2592378828 0 26.7379171149)" id="m0LZObPY8Mmf-y2Fgd-F5"  >
<path style="stroke: rgb(138,199,234); stroke-width: 0; stroke-dasharray: none; stroke-linecap: butt; stroke-dashoffset: 0; stroke-linejoin: miter; stroke-miterlimit: 4; fill: rgb(197,197,197); fill-rule: nonzero; opacity: 1;"  transform=" translate(-0.000005, 0)" d="M -12.84153 5.35266 C -12.84153 -4.69572 -10.44631 -12.841529999999999 -7.49166 -12.841529999999999 L 7.49167 -12.841529999999999 L 7.49167 -12.841529999999999 C 10.44632 -12.841529999999999 12.84154 -4.695709999999998 12.84154 5.35266 L 12.84154 12.84153 L -12.841520000000001 12.84153 z" stroke-linecap="round" />
</g>
		<g transform="matrix(1.0650594815 0 0 0.3034174528 0 34.4652634012)" id="pvibwyxQYY7eohcPKBv1M"  >
<path style="stroke: rgb(159,55,128); stroke-width: 0; stroke-dasharray: none; stroke-linecap: butt; stroke-dashoffset: 0; stroke-linejoin: miter; stroke-miterlimit: 4; fill: rgb(197,197,197); fill-rule: nonzero; opacity: 1;"  transform=" translate(-0.000005, 0)" d="M -10.58824 -7.34629 C -10.58824 -9.13677 -10.17474 -10.588239999999999 -9.664660000000001 -10.588239999999999 L 9.65449 -10.588239999999999 L 9.65449 -10.588239999999999 C 10.17019 -10.588239999999999 10.588249999999999 -9.120769999999998 10.588249999999999 -7.310559999999999 L 10.588249999999999 7.2699300000000004 L 10.588249999999999 7.2699300000000004 C 10.588249999999999 9.10258 10.165009999999999 10.58824 9.642919999999998 10.58824 L -9.76515 10.58824 L -9.76515 10.58824 C -10.21972 10.58824 -10.58822 9.294720000000002 -10.58822 7.699070000000001 z" stroke-linecap="round" />
</g>
		<g transform="matrix(-0.8816341177 0 0 -0.2592378828 0 42.1413641181)" id="VQEbtbZoO8r3_uOj1WaRB"  >
<path style="stroke: rgb(138,199,234); stroke-width: 0; stroke-dasharray: none; stroke-linecap: butt; stroke-dashoffset: 0; stroke-linejoin: miter; stroke-miterlimit: 4; fill: rgb(197,197,197); fill-rule: nonzero; opacity: 1;"  transform=" translate(-0.000005, 0)" d="M -12.84153 5.35266 C -12.84153 -4.69572 -10.44631 -12.841529999999999 -7.49166 -12.841529999999999 L 7.49167 -12.841529999999999 L 7.49167 -12.841529999999999 C 10.44632 -12.841529999999999 12.84154 -4.695709999999998 12.84154 5.35266 L 12.84154 12.84153 L -12.841520000000001 12.84153 z" stroke-linecap="round" />
</g>
		<g transform="matrix(0.5108462317 0.3711515126 -0.4784524884 0.6585333548 -16.4797430114 -23.647995077)" id="tnZvpdrHXbf4OH3WFqh6d"  >
<path style="stroke: rgb(255,204,52); stroke-width: 0; stroke-dasharray: none; stroke-linecap: butt; stroke-dashoffset: 0; stroke-linejoin: miter; stroke-miterlimit: 4; fill: rgb(255,255,255); fill-rule: nonzero; opacity: 1;"  transform=" translate(1.417e-7, 0.00001)" d="M 4.36699 -11.40777 C 10.66408 -11.40777 3.8631100000000003 -6.8637999999999995 3.8631100000000003 -0.5667099999999987 C 3.8631100000000003 5.730380000000001 10.66408 11.407760000000001 4.36699 11.407760000000001 C -1.9300999999999995 11.407760000000001 -7.040779999999999 6.297080000000001 -7.040779999999999 -0.000009999999997845066 C -7.040779999999999 -6.297099999999998 -1.9300999999999986 -11.407779999999997 4.36699 -11.407779999999997 z" stroke-linecap="round" />
</g>
</g>
</g>
</svg>